<?xml version="1.0" standalone="no"?>
<!DOCTYPE svg PUBLIC "-//W3C//DTD SVG 20010904//EN"
 "http://www.w3.org/TR/2001/REC-SVG-20010904/DTD/svg10.dtd">
<svg version="1.0" xmlns="http://www.w3.org/2000/svg"
 width="300.000000pt" height="300.000000pt" viewBox="0 0 300.000000 300.000000"
 preserveAspectRatio="xMidYMid meet">
<metadata>
Created by potrace 1.11, written by Peter Selinger 2001-2013
</metadata>
<g transform="translate(0.000000,300.000000) scale(0.100000,-0.100000)"
fill="#000000" stroke="none">
<path d="M850 2611 l-635 -367 0 -744 0 -743 635 -367 635 -366 235 135 c130
75 419 242 643 371 l407 235 0 740 0 740 -629 362 c-346 200 -635 365 -643
367 -7 3 -299 -161 -648 -363z m961 -387 l309 -177 -19 -31 c-10 -17 -38 -65
-62 -106 -23 -41 -44 -77 -45 -79 -2 -2 -113 60 -247 138 -135 77 -250 141
-257 141 -11 0 -458 -255 -513 -292 l-27 -20 2 -305 3 -305 265 -154 c146 -85
272 -151 280 -148 8 3 119 65 246 139 128 74 236 135 241 135 10 -1 122 -193
117 -201 -2 -4 -141 -84 -308 -178 l-303 -171 -386 222 -386 223 -1 450 0 450
383 223 c210 122 386 222 391 222 4 0 147 -79 317 -176z"/>
</g>
</svg>
