<?xml version="1.0" standalone="no"?>
<!DOCTYPE svg PUBLIC "-//W3C//DTD SVG 20010904//EN"
 "http://www.w3.org/TR/2001/REC-SVG-20010904/DTD/svg10.dtd">
<svg version="1.0" xmlns="http://www.w3.org/2000/svg"
 width="16.000000pt" height="16.000000pt" viewBox="0 0 16.000000 16.000000"
 preserveAspectRatio="xMidYMid meet">
<metadata>
Created by potrace 1.11, written by Peter Selinger 2001-2013
</metadata>
<g transform="translate(0.000000,16.000000) scale(0.004638,-0.004638)"
fill="#000000" stroke="none">
<path d="M983 2986 l-733 -421 3 -844 2 -844 727 -418 726 -418 736 422 735
422 1 841 0 841 -727 418 c-401 230 -730 419 -733 420 -3 2 -335 -187 -737
-419z m1084 -427 c186 -106 344 -198 352 -205 11 -10 2 -32 -55 -133 -38 -66
-73 -121 -78 -121 -5 0 -135 72 -289 161 -239 138 -283 160 -301 151 -11 -6
-149 -84 -306 -175 l-285 -165 0 -353 0 -353 300 -173 c165 -95 308 -171 317
-169 9 2 139 75 289 161 255 148 273 156 286 139 41 -56 125 -216 117 -224
-17 -16 -686 -390 -697 -389 -7 0 -208 114 -447 252 l-435 253 0 514 0 514
435 252 c239 139 440 253 447 254 7 0 164 -86 350 -191z"/>
</g>
</svg>
