<?xml version="1.0" encoding="utf-8"?>
<!-- Generator: Adobe Illustrator 15.1.0, SVG Export Plug-In . SVG Version: 6.00 Build 0)  -->
<!DOCTYPE svg PUBLIC "-//W3C//DTD SVG 1.1//EN" "http://www.w3.org/Graphics/SVG/1.1/DTD/svg11.dtd">
<svg version="1.1" id="Layer_1" xmlns="http://www.w3.org/2000/svg" xmlns:xlink="http://www.w3.org/1999/xlink" x="0px" y="0px"
	 width="360px" height="360px" viewBox="0 0 360 360" enable-background="new 0 0 360 360" xml:space="preserve">
<g>
	<g>
		<defs>
			<rect id="SVGID_1_" x="8.765" y="24.706" width="343.317" height="312.294"/>
		</defs>
		<clipPath id="SVGID_2_">
			<use xlink:href="#SVGID_1_"  overflow="visible"/>
		</clipPath>
		<g clip-path="url(#SVGID_2_)">
			<defs>
				<rect id="SVGID_3_" x="-31.122" y="-20.926" width="420.421" height="420.421"/>
			</defs>
			<clipPath id="SVGID_4_">
				<use xlink:href="#SVGID_3_"  overflow="visible"/>
			</clipPath>
			<g clip-path="url(#SVGID_4_)">
				<defs>
					<rect id="SVGID_5_" x="-31.122" y="-20.926" width="420.421" height="420.421"/>
				</defs>
				<clipPath id="SVGID_6_">
					<use xlink:href="#SVGID_5_"  overflow="visible"/>
				</clipPath>
				<g clip-path="url(#SVGID_6_)">
					<g>
						<defs>
							<rect id="SVGID_7_" x="94.557" y="24.717" width="140.701" height="134.403"/>
						</defs>
						<clipPath id="SVGID_8_">
							<use xlink:href="#SVGID_7_"  overflow="visible"/>
						</clipPath>
						<path clip-path="url(#SVGID_8_)" fill-rule="evenodd" clip-rule="evenodd" fill="#FFFFFF" d="M94.556,88.26
							c35.258-3.992,61.536-30.606,61.536-63.542c10.978,31.605,33.928,44.246,79.166,41.917
							c-20.29,27.613-25.28,56.89-14.304,87.829c-39.915-37.926-74.175-12.643-88.479,4.656
							C144.784,116.87,135.469,95.246,94.556,88.26"/>
					</g>
				</g>
			</g>
			<polygon clip-path="url(#SVGID_4_)" fill="#7E879A" points="19.35,283.569 8.765,283.569 8.765,229.534 11.578,229.534 
				38.299,260.623 38.299,230.719 48.958,230.719 48.958,284.68 46.146,284.68 19.35,254.775 			"/>
			<polygon clip-path="url(#SVGID_4_)" fill="#7E879A" points="60.877,283.569 60.877,230.644 87.376,230.644 87.376,241.229 
				71.462,241.229 71.462,251.814 85.377,251.814 85.377,262.399 71.462,262.399 71.462,272.984 88.265,272.984 88.265,283.569 			
				"/>
			<polygon clip-path="url(#SVGID_4_)" fill="#7E879A" points="114.395,284.68 92.707,230.644 104.624,230.644 115.284,257.662 
				125.646,231.162 126.165,231.162 136.527,257.662 147.186,230.644 159.104,230.644 137.489,284.457 135.565,284.457 
				125.868,260.993 116.246,284.68 			"/>
			<g clip-path="url(#SVGID_4_)">
				<defs>
					<rect id="SVGID_9_" x="-31.122" y="-20.926" width="420.421" height="420.421"/>
				</defs>
				<clipPath id="SVGID_10_">
					<use xlink:href="#SVGID_9_"  overflow="visible"/>
				</clipPath>
				<path clip-path="url(#SVGID_10_)" fill="#7E879A" d="M164.435,269.061c6.07,4.293,12.657,4.441,15.1,4.219
					c3.108-0.222,5.773-2.441,5.477-5.329c-0.222-3.034-2.516-4.367-5.477-5.402c-8.29-3.035-15.692-7.255-15.692-16.137
					c0-8.883,6.144-15.692,14.952-16.138c2.739-0.147,6.367-0.147,13.176,2.221l-1.333,10.216
					c-5.848-2.369-9.179-2.295-10.806-2.222c-3.775,0.223-5.479,2.961-5.256,5.923c0.296,2.96,2.887,4.293,5.921,5.329
					c8.217,3.035,15.322,7.772,15.322,16.21c0,8.809-6.07,15.545-15.988,16.063c-2.961,0.222-9.549-0.147-16.729-3.849
					L164.435,269.061z"/>
				<path clip-path="url(#SVGID_10_)" fill="#424D66" d="M231.054,283.569l-10.658-20.208h-5.108v20.208h-10.584v-52.926h20.873
					c18.876,0,20.727,26.574,5.182,31.089l12.288,21.837H231.054z M215.287,253.072h9.327c7.18,0,7.18-11.844,0-11.844h-9.327
					V253.072z"/>
				<polygon clip-path="url(#SVGID_10_)" fill="#424D66" points="250.078,283.569 250.078,230.644 276.578,230.644 276.578,241.229 
					260.663,241.229 260.663,251.814 274.579,251.814 274.579,262.399 260.663,262.399 260.663,272.984 277.466,272.984 
					277.466,283.569 				"/>
				<polygon clip-path="url(#SVGID_10_)" fill="#424D66" points="287.387,283.569 287.387,230.644 313.886,230.644 313.886,241.229 
					297.972,241.229 297.972,251.814 311.888,251.814 311.888,262.399 297.972,262.399 297.972,272.984 314.774,272.984 
					314.774,283.569 				"/>
				<polygon clip-path="url(#SVGID_10_)" fill="#424D66" points="335.279,230.644 335.279,272.984 352.082,272.984 352.082,283.569 
					324.694,283.569 324.694,230.644 				"/>
				<polygon clip-path="url(#SVGID_10_)" fill="#DA5B4D" points="38.5,324.348 30.87,312.307 36.202,312.307 40.674,319.844 
					45.148,312.307 50.51,312.307 42.85,324.348 42.85,334.212 38.5,334.212 				"/>
				<path clip-path="url(#SVGID_10_)" fill="#DA5B4D" d="M62.609,311.939c15.073,0,15.073,22.579,0,22.579
					S47.536,311.939,62.609,311.939 M62.609,316.442c-8.762,0-8.762,13.542,0,13.542S71.371,316.442,62.609,316.442"/>
				<path clip-path="url(#SVGID_10_)" fill="#DA5B4D" d="M77.894,326.584v-14.277h4.381v14.246c0,4.596,7.107,4.596,7.107,0v-14.246
					h4.351v14.277C93.733,337,77.894,337,77.894,326.584"/>
				<polygon clip-path="url(#SVGID_10_)" fill="#DA5B4D" points="102.187,334.212 102.187,316.688 96.734,316.688 96.734,312.337 
					112.022,312.337 112.022,316.688 106.568,316.688 106.568,334.212 				"/>
				<polygon clip-path="url(#SVGID_10_)" fill="#DA5B4D" points="126.267,334.212 126.267,325.45 119.711,325.45 119.711,334.212 
					115.33,334.212 115.33,312.307 119.711,312.307 119.711,321.068 126.267,321.068 126.267,312.307 130.648,312.307 
					130.648,334.212 				"/>
				<path clip-path="url(#SVGID_10_)" fill="#DA5B4D" d="M154.419,316.442c-8.67,0-8.67,13.358,0,13.358
					c1.9,0,3.401-0.552,4.228-0.98l0.583,4.534c-1.349,0.552-3.279,0.919-4.811,0.919c-14.859,0-14.828-22.242,0-22.242
					c1.532,0,3.003,0.275,4.32,0.857l-0.521,4.504C157.391,316.964,156.319,316.442,154.419,316.442"/>
				<path clip-path="url(#SVGID_10_)" fill="#DA5B4D" d="M173.627,334.212l-4.411-8.363h-2.114v8.363h-4.381v-21.905h8.64
					c7.813,0,8.579,10.999,2.145,12.868l5.085,9.037H173.627z M167.102,321.59h3.861c2.972,0,2.972-4.902,0-4.902h-3.861V321.59z"/>
				<rect x="181.499" y="312.307" clip-path="url(#SVGID_10_)" fill="#DA5B4D" width="4.382" height="21.905"/>
				<polygon clip-path="url(#SVGID_10_)" fill="#DA5B4D" points="194.427,334.212 194.427,316.688 188.974,316.688 188.974,312.337 
					204.261,312.337 204.261,316.688 198.808,316.688 198.808,334.212 				"/>
				<rect x="207.568" y="312.307" clip-path="url(#SVGID_10_)" fill="#DA5B4D" width="4.381" height="21.905"/>
				<path clip-path="url(#SVGID_10_)" fill="#DA5B4D" d="M227.022,316.442c-8.671,0-8.671,13.358,0,13.358
					c1.899,0,3.4-0.552,4.228-0.98l0.582,4.534c-1.349,0.552-3.278,0.919-4.81,0.919c-14.859,0-14.829-22.242,0-22.242
					c1.531,0,3.003,0.275,4.319,0.857l-0.521,4.504C229.994,316.964,228.922,316.442,227.022,316.442"/>
				<path clip-path="url(#SVGID_10_)" fill="#DA5B4D" d="M234.863,328.207c2.512,1.777,5.239,1.839,6.25,1.746
					c1.287-0.092,2.39-1.011,2.267-2.205c-0.092-1.256-1.041-1.808-2.267-2.236c-3.432-1.257-6.495-3.003-6.495-6.679
					c0-3.677,2.543-6.495,6.188-6.679c1.134-0.063,2.635-0.063,5.453,0.918l-0.551,4.229c-2.421-0.98-3.8-0.95-4.474-0.919
					c-1.563,0.092-2.267,1.226-2.175,2.451c0.123,1.225,1.194,1.776,2.451,2.205c3.4,1.256,6.342,3.217,6.342,6.71
					c0,3.646-2.513,6.434-6.618,6.648c-1.225,0.091-3.952-0.062-6.924-1.593L234.863,328.207z"/>
				<path clip-path="url(#SVGID_10_)" fill="#DA5B4D" d="M270.369,316.442c-8.671,0-8.671,13.358,0,13.358
					c1.899,0,3.4-0.552,4.228-0.98l0.582,4.534c-1.348,0.552-3.278,0.919-4.81,0.919c-14.859,0-14.828-22.242,0-22.242
					c1.531,0,3.002,0.275,4.319,0.857l-0.521,4.504C273.341,316.964,272.269,316.442,270.369,316.442"/>
				<polygon clip-path="url(#SVGID_10_)" fill="#DA5B4D" points="283.051,312.307 283.051,329.831 290.006,329.831 290.006,334.212 
					278.67,334.212 278.67,312.307 				"/>
				<path clip-path="url(#SVGID_10_)" fill="#DA5B4D" d="M293.649,326.584v-14.277h4.382v14.246c0,4.596,7.107,4.596,7.107,0
					v-14.246h4.351v14.277C309.489,337,293.649,337,293.649,326.584"/>
				<path clip-path="url(#SVGID_10_)" fill="#DA5B4D" d="M314.327,312.276h8.671c3.892,0,6.312,2.788,6.22,6.647
					c-0.062,1.655-0.644,3.37-2.022,4.32c1.44,0.98,2.268,2.665,2.268,4.382c0,3.676-2.911,6.586-6.465,6.586h-8.671V312.276z
					 M318.74,321.068h2.634h1.257c1.256,0,2.021-1.011,2.021-2.205c0-1.226-0.766-2.206-2.021-2.206h-3.891V321.068z
					 M318.74,329.831h2.634h1.257c1.256,0,2.205-0.98,2.205-2.205c0-1.226-0.949-2.176-2.205-2.176h-3.891V329.831z"/>
				<path clip-path="url(#SVGID_10_)" fill="#424D66" d="M202.288,150.196c0,33.261-26.964,60.225-60.226,60.225
					s-60.225-26.964-60.225-60.225s26.964-60.225,60.225-60.225S202.288,116.935,202.288,150.196"/>
				<path clip-path="url(#SVGID_10_)" fill="#FFFFFF" d="M129.559,129.029c0,8.187-6.637,14.825-14.824,14.825
					c-8.188,0-14.825-6.638-14.825-14.825s6.637-14.824,14.825-14.824C122.921,114.205,129.559,120.842,129.559,129.029"/>
				<path clip-path="url(#SVGID_10_)" fill="#FFFFFF" d="M127.806,171.93c0,8.187-6.637,14.824-14.824,14.824
					c-8.188,0-14.825-6.637-14.825-14.824c0-8.187,6.637-14.824,14.825-14.824C121.168,157.105,127.806,163.743,127.806,171.93"/>
				<path clip-path="url(#SVGID_10_)" fill="#FFFFFF" d="M165.137,187.605c0,8.187-6.638,14.824-14.824,14.824
					c-8.188,0-14.825-6.638-14.825-14.824c0-8.188,6.638-14.824,14.825-14.824C158.5,172.781,165.137,179.418,165.137,187.605"/>
				<path clip-path="url(#SVGID_10_)" fill="#FFFFFF" d="M192.053,155.018c0,8.188-6.638,14.825-14.825,14.825
					c-8.188,0-14.824-6.637-14.824-14.825s6.637-14.824,14.824-14.824C185.415,140.193,192.053,146.83,192.053,155.018"/>
				<path clip-path="url(#SVGID_10_)" fill="#FFFFFF" d="M171.118,118.615c0,8.187-6.638,14.825-14.824,14.825
					c-8.188,0-14.825-6.638-14.825-14.825c0-8.188,6.638-14.824,14.825-14.824C164.48,103.791,171.118,110.427,171.118,118.615"/>
				<path clip-path="url(#SVGID_10_)" fill-rule="evenodd" clip-rule="evenodd" fill="#DA5B4D" d="M193.71,112.269l77.983,31.981
					c0,0,10.896-12.549,9.211-17.291c-1.685-4.742-10.202-6.924-10.202-6.924s3.887-10.86-2.961-15.103
					c-6.849-4.243-15.801,5.072-15.801,5.072s-1.05-10.92-7.075-14.971c-6.53-4.388-11.201,6.623-11.201,6.623
					s-9.273-12.592-12.856-13.833c-7.612-2.637-10.029,10.104-10.029,10.104s-7.509-3.474-11.731-3.71
					C194.824,93.982,193.71,112.269,193.71,112.269"/>
				<polygon clip-path="url(#SVGID_10_)" fill-rule="evenodd" clip-rule="evenodd" fill="#7E879A" points="192.525,99.545 
					282.183,135.786 230.978,219.395 171.248,195.25 				"/>
				<polygon clip-path="url(#SVGID_10_)" fill-rule="evenodd" clip-rule="evenodd" fill="#FFFFFF" points="207.289,118.551 
					226.7,127.153 195.4,196.191 186.314,192.087 				"/>
				<polygon clip-path="url(#SVGID_10_)" fill-rule="evenodd" clip-rule="evenodd" fill="#FFFFFF" points="223.103,205.081 
					213.697,201.77 238.78,130.238 258.756,137.433 				"/>
				<path clip-path="url(#SVGID_10_)" fill="#DA5B4D" d="M265.813,194.179c0,10.338-8.38,18.717-18.718,18.717
					c-10.337,0-18.717-8.379-18.717-18.717s8.38-18.717,18.717-18.717C257.433,175.461,265.813,183.841,265.813,194.179"/>
				<path clip-path="url(#SVGID_10_)" fill="#DA5B4D" d="M82.043,90.383c0,7.348-5.956,13.303-13.303,13.303
					s-13.303-5.956-13.303-13.303c0-7.347,5.956-13.303,13.303-13.303S82.043,83.036,82.043,90.383"/>
				<path clip-path="url(#SVGID_10_)" fill="#DA5B4D" d="M277.878,71.047c0,3.332-2.701,6.033-6.032,6.033
					c-3.332,0-6.033-2.701-6.033-6.033s2.701-6.033,6.033-6.033C275.177,65.014,277.878,67.715,277.878,71.047"/>
				<g clip-path="url(#SVGID_10_)">
					<g>
						<defs>
							<rect id="SVGID_11_" x="94.557" y="24.706" width="140.701" height="134.402"/>
						</defs>
						<clipPath id="SVGID_12_">
							<use xlink:href="#SVGID_11_"  overflow="visible"/>
						</clipPath>
						<path clip-path="url(#SVGID_12_)" fill-rule="evenodd" clip-rule="evenodd" fill="#E27149" d="M94.556,88.247
							c35.258-3.992,61.536-30.606,61.536-63.542c10.977,31.605,33.928,44.246,79.166,41.917
							c-20.29,27.613-25.28,56.89-14.304,87.829c-39.915-37.926-74.175-12.643-88.479,4.656
							C144.784,116.857,135.469,95.233,94.556,88.247"/>
					</g>
				</g>
			</g>
		</g>
	</g>
</g>
</svg>
