<?xml version="1.0" encoding="utf-8"?>
<!-- Generator: Adobe Illustrator 15.1.0, SVG Export Plug-In . SVG Version: 6.00 Build 0)  -->
<!DOCTYPE svg PUBLIC "-//W3C//DTD SVG 1.1//EN" "http://www.w3.org/Graphics/SVG/1.1/DTD/svg11.dtd">
<svg version="1.1" id="Layer_1" xmlns="http://www.w3.org/2000/svg" xmlns:xlink="http://www.w3.org/1999/xlink" x="0px" y="0px"
	 width="435.172px" height="128.5px" viewBox="0 0 435.172 128.5" enable-background="new 0 0 435.172 128.5" xml:space="preserve">
<g>
	<g>
		<defs>
			<polygon id="SVGID_1_" points="123.098,81.042 63.535,116.335 4,81.042 4,4.609 63.79,16.152 123.098,4.609 			"/>
		</defs>
		<clipPath id="SVGID_2_">
			<use xlink:href="#SVGID_1_"  overflow="visible"/>
		</clipPath>
		<g clip-path="url(#SVGID_2_)">
			
				<rect x="-45.172" y="-97.69" transform="matrix(0.7071 -0.7071 0.7071 0.7071 10.6167 48.5564)" fill="#FFFFFF" width="218.187" height="218.305"/>
			
				<rect x="-35.942" y="26.521" transform="matrix(0.7071 -0.7071 0.7071 0.7071 -38.9664 6.1344)" fill="#FCB017" width="47.728" height="47.164"/>
			
				<rect x="-73.576" y="-11.11" transform="matrix(0.7071 -0.7071 0.7071 0.7071 -23.3758 -31.4977)" fill="#2AAAE2" width="47.729" height="47.16"/>
			
				<rect x="2.092" y="-11.513" transform="matrix(0.7071 -0.7071 0.7071 0.7071 -0.9305 21.8899)" fill="#F47D20" width="47.728" height="47.162"/>
			
				<rect x="77.36" y="63.757" transform="matrix(0.7071 -0.7071 0.7071 0.7071 -32.1097 97.1487)" fill="#F47D20" width="47.727" height="47.161"/>
			
				<rect x="40.126" y="-49.547" transform="matrix(0.7071 -0.7071 0.7071 0.7071 37.1012 37.6421)" fill="#2AAAE2" width="47.729" height="47.161"/>
			
				<rect x="2.494" y="-87.179" transform="matrix(0.7071 -0.7071 0.7071 0.7071 52.6878 0.0118)" fill="#FCB017" width="47.729" height="47.16"/>
			
				<rect x="79.5" y="-88.921" transform="matrix(0.7071 -0.7071 0.7071 0.7071 76.4827 53.9537)" fill="#ED237A" width="47.73" height="47.161"/>
			
				<rect x="-35.541" y="-49.148" transform="matrix(0.7071 -0.7071 0.7071 0.7071 14.6585 -15.7464)" fill="#ED237A" width="47.728" height="47.164"/>
			
				<rect x="41.867" y="-126.556" transform="matrix(0.7071 -0.7071 0.7071 0.7071 92.0734 16.3174)" fill="#F47D20" width="47.73" height="47.163"/>
			
				<rect x="6.283" y="-153.945" transform="matrix(-0.7066 -0.7077 0.7077 -0.7066 44.7241 -71.1583)" opacity="0.8" fill="#FAED24" width="2.65" height="218.186"/>
			
				<rect x="39.325" y="101.791" transform="matrix(0.7071 -0.7071 0.7071 0.7071 -70.1446 81.4069)" fill="#FCB017" width="47.729" height="47.16"/>
			
				<rect x="1.694" y="64.156" transform="matrix(0.7071 -0.7071 0.7071 0.7071 -54.5534 43.7673)" fill="#2AAAE2" width="47.725" height="47.161"/>
			
				<rect x="115.395" y="25.722" transform="matrix(0.7071 -0.7071 0.7071 0.7071 5.9267 112.9108)" fill="#2AAAE2" width="47.727" height="47.159"/>
			
				<rect x="77.759" y="-11.914" transform="matrix(0.7071 -0.7071 0.7071 0.7071 21.5131 75.2733)" fill="#FCB017" width="47.729" height="47.161"/>
			
				<rect x="154.768" y="-13.653" transform="matrix(0.7071 -0.7071 0.7071 0.7071 45.2955 129.2143)" fill="#ED237A" width="47.73" height="47.161"/>
			
				<rect x="39.726" y="26.122" transform="matrix(0.7071 -0.7071 0.7071 0.7071 -16.5204 59.5233)" fill="#ED237A" width="47.728" height="47.161"/>
			
				<rect x="117.135" y="-51.286" transform="matrix(0.7071 -0.7071 0.7071 0.7071 60.8837 91.5837)" fill="#F47D20" width="47.73" height="47.161"/>
			
				<rect x="81.551" y="-78.677" transform="matrix(-0.7071 -0.7071 0.7071 -0.7071 119.968 110.5264)" opacity="0.8" fill="#FAED24" width="2.648" height="218.188"/>
			
				<rect x="44.155" y="-77.459" transform="matrix(0.7077 -0.7066 0.7066 0.7077 -8.4996 41.1524)" opacity="0.8" fill="#FAED24" width="2.651" height="216.612"/>
		</g>
	</g>
	<g>
		<path fill="#F47D20" d="M148.718,76.979V28.312h6.84c0.688,0,1.265,0.157,1.729,0.463c0.463,0.311,0.787,0.772,0.979,1.389
			l0.818,2.708c0.713-0.783,1.478-1.496,2.298-2.136c0.821-0.641,1.699-1.195,2.636-1.656c0.938-0.463,1.948-0.826,3.029-1.087
			c1.079-0.261,2.263-0.391,3.543-0.391c1.925,0,3.705,0.426,5.347,1.282c1.638,0.855,3.05,2.091,4.238,3.705
			c1.185,1.616,2.12,3.593,2.794,5.933c0.68,2.34,1.019,4.993,1.019,7.961c0,2.781-0.389,5.343-1.159,7.695
			c-0.772,2.351-1.853,4.396-3.243,6.129c-1.389,1.733-3.053,3.087-4.986,4.061c-1.938,0.976-4.08,1.462-6.431,1.462
			c-1.926,0-3.541-0.275-4.845-0.82c-1.307-0.545-2.496-1.282-3.563-2.21v14.181H148.718z M166.744,36.044
			c-0.807,0-1.537,0.079-2.19,0.232c-0.655,0.155-1.26,0.374-1.817,0.659c-0.56,0.284-1.076,0.646-1.55,1.087
			c-0.476,0.44-0.948,0.942-1.423,1.514v15.676c0.829,0.925,1.733,1.574,2.707,1.939c0.974,0.372,1.995,0.555,3.062,0.555
			c1.023,0,1.96-0.204,2.815-0.607c0.855-0.403,1.598-1.049,2.227-1.942c0.629-0.89,1.122-2.047,1.479-3.473
			c0.356-1.423,0.537-3.158,0.537-5.202c0-1.945-0.146-3.587-0.43-4.917c-0.285-1.329-0.684-2.404-1.195-3.224
			c-0.51-0.818-1.122-1.406-1.832-1.763C168.42,36.222,167.623,36.044,166.744,36.044z"/>
		<path fill="#F47D20" d="M201.871,18.196c0,0.878-0.176,1.701-0.532,2.476c-0.357,0.771-0.844,1.447-1.462,2.03
			c-0.616,0.583-1.336,1.046-2.154,1.389c-0.82,0.345-1.692,0.517-2.621,0.517c-0.901,0-1.745-0.171-2.528-0.517
			c-0.782-0.342-1.479-0.806-2.084-1.389c-0.606-0.583-1.082-1.258-1.424-2.03c-0.345-0.774-0.519-1.598-0.519-2.476
			c0-0.905,0.174-1.748,0.519-2.531c0.342-0.783,0.817-1.473,1.424-2.067c0.605-0.591,1.302-1.056,2.084-1.389
			c0.783-0.331,1.627-0.499,2.528-0.499c0.929,0,1.801,0.168,2.621,0.499c0.818,0.333,1.538,0.797,2.154,1.389
			c0.618,0.594,1.104,1.285,1.462,2.067C201.695,16.448,201.871,17.291,201.871,18.196z M200.591,28.312v36.945h-11.047V28.312
			H200.591z"/>
		<path fill="#F47D20" d="M235.432,37.077c-0.334,0.405-0.651,0.725-0.963,0.963c-0.307,0.237-0.748,0.356-1.316,0.356
			c-0.547,0-1.041-0.131-1.478-0.392c-0.442-0.261-0.935-0.554-1.479-0.874c-0.548-0.321-1.188-0.612-1.925-0.872
			c-0.736-0.261-1.65-0.396-2.743-0.396c-1.354,0-2.524,0.25-3.507,0.749c-0.987,0.499-1.802,1.211-2.441,2.14
			c-0.643,0.925-1.117,2.061-1.428,3.401c-0.307,1.342-0.461,2.856-0.461,4.543c0,3.54,0.681,6.26,2.046,8.159
			c1.366,1.898,3.248,2.85,5.648,2.85c1.282,0,2.296-0.16,3.045-0.481c0.748-0.322,1.386-0.676,1.908-1.07
			c0.521-0.391,1.002-0.754,1.44-1.084c0.441-0.333,0.992-0.499,1.657-0.499c0.881,0,1.544,0.319,1.996,0.959l3.207,3.955
			c-1.14,1.308-2.34,2.369-3.599,3.19c-1.258,0.819-2.549,1.462-3.864,1.925c-1.32,0.461-2.644,0.782-3.976,0.959
			c-1.327,0.181-2.624,0.271-3.881,0.271c-2.258,0-4.414-0.43-6.466-1.284c-2.057-0.856-3.863-2.097-5.416-3.724
			c-1.558-1.626-2.792-3.627-3.706-6.001c-0.914-2.375-1.371-5.083-1.371-8.124c0-2.659,0.396-5.15,1.194-7.463
			c0.794-2.316,1.969-4.323,3.526-6.021c1.557-1.699,3.479-3.033,5.772-4.007c2.29-0.975,4.946-1.461,7.96-1.461
			c2.899,0,5.439,0.46,7.625,1.388c2.185,0.925,4.155,2.28,5.915,4.063L235.432,37.077z"/>
		<path fill="#2AAAE2" d="M242.7,76.979V28.312h6.84c0.687,0,1.264,0.157,1.728,0.463c0.464,0.311,0.788,0.772,0.979,1.389
			l0.818,2.708c0.713-0.783,1.479-1.496,2.3-2.136c0.82-0.641,1.699-1.195,2.634-1.656c0.939-0.463,1.948-0.826,3.03-1.087
			c1.079-0.261,2.261-0.391,3.543-0.391c1.925,0,3.705,0.426,5.346,1.282c1.64,0.855,3.052,2.091,4.24,3.705
			c1.186,1.616,2.119,3.593,2.794,5.933c0.679,2.34,1.019,4.993,1.019,7.961c0,2.781-0.389,5.343-1.16,7.695
			c-0.771,2.351-1.854,4.396-3.242,6.129c-1.388,1.733-3.053,3.087-4.986,4.061c-1.937,0.976-4.079,1.462-6.429,1.462
			c-1.927,0-3.541-0.275-4.847-0.82c-1.308-0.545-2.496-1.282-3.563-2.21v14.181H242.7z M260.726,36.044
			c-0.807,0-1.537,0.079-2.189,0.232c-0.654,0.155-1.261,0.374-1.818,0.659c-0.559,0.284-1.075,0.646-1.551,1.087
			c-0.475,0.44-0.948,0.942-1.423,1.514v15.676c0.828,0.925,1.733,1.574,2.707,1.939c0.975,0.372,1.994,0.555,3.063,0.555
			c1.022,0,1.959-0.204,2.814-0.607c0.855-0.403,1.598-1.049,2.228-1.942c0.629-0.89,1.121-2.047,1.478-3.473
			c0.357-1.423,0.537-3.158,0.537-5.202c0-1.945-0.145-3.587-0.43-4.917c-0.283-1.329-0.683-2.404-1.194-3.224
			c-0.51-0.818-1.121-1.406-1.832-1.763C262.4,36.222,261.604,36.044,260.726,36.044z"/>
		<path fill="#2AAAE2" d="M299.63,27.744c2.802,0,5.356,0.438,7.661,1.316c2.303,0.882,4.28,2.14,5.929,3.778
			c1.653,1.638,2.935,3.627,3.85,5.967c0.914,2.34,1.373,4.97,1.373,7.892c0,2.946-0.459,5.598-1.373,7.961
			c-0.915,2.367-2.196,4.373-3.85,6.021c-1.648,1.651-3.626,2.923-5.929,3.813c-2.305,0.89-4.859,1.337-7.661,1.337
			c-2.826,0-5.398-0.447-7.715-1.337c-2.313-0.89-4.311-2.162-5.984-3.813c-1.674-1.649-2.968-3.655-3.883-6.021
			c-0.914-2.363-1.373-5.015-1.373-7.961c0-2.922,0.459-5.552,1.373-7.892c0.915-2.34,2.209-4.329,3.883-5.967
			c1.674-1.638,3.672-2.896,5.984-3.778C294.231,28.182,296.804,27.744,299.63,27.744z M299.63,57.633
			c2.541,0,4.41-0.896,5.611-2.688c1.2-1.794,1.801-4.521,1.801-8.177c0-3.658-0.601-6.378-1.801-8.159
			c-1.201-1.783-3.07-2.673-5.611-2.673c-2.614,0-4.525,0.89-5.737,2.673c-1.211,1.781-1.814,4.5-1.814,8.159
			c0,3.656,0.604,6.382,1.814,8.177C295.104,56.736,297.016,57.633,299.63,57.633z"/>
		<path fill="#2AAAE2" d="M334.116,28.312v23.444c0,1.829,0.414,3.241,1.245,4.239c0.833,0.997,2.058,1.496,3.671,1.496
			c1.212,0,2.346-0.249,3.401-0.748c1.057-0.499,2.085-1.197,3.082-2.103V28.312h11.046v36.945h-6.843
			c-1.377,0-2.278-0.616-2.707-1.853l-0.675-2.135c-0.714,0.686-1.45,1.31-2.211,1.871c-0.759,0.556-1.574,1.031-2.44,1.422
			c-0.867,0.395-1.798,0.702-2.794,0.928c-0.998,0.226-2.092,0.34-3.28,0.34c-2.019,0-3.807-0.352-5.36-1.053
			c-1.557-0.699-2.867-1.679-3.938-2.94c-1.069-1.258-1.876-2.742-2.425-4.453c-0.546-1.707-0.816-3.586-0.816-5.627V28.312H334.116
			z"/>
		<path fill="#2AAAE2" d="M391.046,37.077c-0.334,0.405-0.651,0.725-0.964,0.963c-0.306,0.237-0.747,0.356-1.314,0.356
			c-0.548,0-1.041-0.131-1.479-0.392c-0.442-0.261-0.934-0.554-1.479-0.874c-0.548-0.321-1.188-0.612-1.925-0.872
			c-0.735-0.261-1.649-0.396-2.742-0.396c-1.354,0-2.525,0.25-3.509,0.749c-0.984,0.499-1.801,1.211-2.44,2.14
			c-0.643,0.925-1.116,2.061-1.428,3.401c-0.307,1.342-0.461,2.856-0.461,4.543c0,3.54,0.683,6.26,2.049,8.159
			c1.365,1.898,3.246,2.85,5.647,2.85c1.279,0,2.295-0.16,3.043-0.481c0.749-0.322,1.386-0.676,1.908-1.07
			c0.521-0.391,1.003-0.754,1.441-1.084c0.44-0.333,0.991-0.499,1.658-0.499c0.878,0,1.542,0.319,1.994,0.959l3.207,3.955
			c-1.14,1.308-2.34,2.369-3.598,3.19c-1.258,0.819-2.55,1.462-3.865,1.925c-1.319,0.461-2.644,0.782-3.976,0.959
			c-1.327,0.181-2.623,0.271-3.881,0.271c-2.256,0-4.414-0.43-6.466-1.284c-2.057-0.856-3.863-2.097-5.417-3.724
			c-1.557-1.626-2.792-3.627-3.706-6.001c-0.912-2.375-1.369-5.083-1.369-8.124c0-2.659,0.396-5.15,1.193-7.463
			c0.795-2.316,1.97-4.323,3.526-6.021c1.557-1.699,3.479-3.033,5.772-4.007c2.29-0.975,4.946-1.461,7.96-1.461
			c2.901,0,5.439,0.46,7.625,1.388c2.186,0.925,4.156,2.28,5.915,4.063L391.046,37.077z"/>
		<path fill="#2AAAE2" d="M398.314,65.257V11.925h11.043v19.631c1.331-1.142,2.772-2.061,4.329-2.763
			c1.555-0.698,3.414-1.049,5.576-1.049c2.019,0,3.806,0.351,5.36,1.049c1.557,0.702,2.868,1.676,3.938,2.923
			c1.069,1.246,1.875,2.73,2.424,4.453c0.545,1.722,0.817,3.592,0.817,5.61v23.478h-11.044V41.779c0-1.804-0.415-3.212-1.246-4.221
			c-0.832-1.009-2.057-1.514-3.67-1.514c-1.213,0-2.353,0.261-3.419,0.783c-1.07,0.522-2.09,1.224-3.065,2.103v26.328H398.314z"/>
	</g>
</g>
</svg>
