<?xml version="1.0" encoding="utf-8"?>
<!-- Generator: Adobe Illustrator 15.1.0, SVG Export Plug-In . SVG Version: 6.00 Build 0)  -->
<!DOCTYPE svg PUBLIC "-//W3C//DTD SVG 1.1//EN" "http://www.w3.org/Graphics/SVG/1.1/DTD/svg11.dtd">
<svg version="1.1" id="Layer_1" xmlns="http://www.w3.org/2000/svg" xmlns:xlink="http://www.w3.org/1999/xlink" x="0px" y="0px"
	 width="194.974px" height="220.417px" viewBox="0 0 194.974 220.417" enable-background="new 0 0 194.974 220.417"
	 xml:space="preserve">
<g>
	<path fill="#F1F2F2" stroke="#FFFFFF" stroke-width="8" stroke-miterlimit="10" d="M183.66,10.422
		c1.067,0.827,0.688,2.295,0.774,3.396c1.735,22.171,2.515,47.9,3.874,70.74c-1.513,0.791-3.794,0.833-5.037,1.888
		c0.278,2.558,1.329,4.365,2.712,5.847c-1.245,3.501-0.363,6.817,0.194,10.375c-2.701,2.776-3.32,7.581-4.648,11.695
		c0.181,1.707,0.414,3.52,0.194,5.096c-0.098,0.688-0.844,1.635-0.97,2.452c-0.062,0.41,0.294,1.059,0.194,1.32
		c-0.263,0.687-1.223,0.987-1.55,1.698c-0.478,1.034-0.021,2.734-0.388,3.961c-0.408,1.368-1.425,1.88-1.937,3.019
		c-0.113,1.055,1.345,1.13,1.354,2.264c0.006,0.66-0.976,1.19-1.162,1.887c-0.472,1.774,0.097,4.102-1.355,4.717
		c-2.707-0.841-4.222,1.469-6.005,2.641c-0.834,5.097-5.033,6.919-7.555,10.375c-3.448-0.89-4.187,3.327-7.167,2.641
		c-1.412-0.325-1.424-2.931-2.712-3.017c-0.382-0.027-3.53,2.319-3.874,3.017c-0.543,1.1-0.013,2.59-0.388,3.772
		c-1.498,0.241-3.109,0.369-4.842,0.378c-0.166,2.291-1.744,3.208-2.906,4.528c1.477,2.759,0.622,5.162-1.744,6.412
		c1.787,1.713,2.082,5.587,1.938,7.924c-1.575,0.609-1.935-1.31-3.294-1.509c-0.056,2.795-2.469,5.849-5.035,3.395
		c0.131-1.192,0.984-1.682,1.355-2.642c-0.216-1.171-1.185-1.612-1.55-2.641c-1.77,0.601-1.904-0.71-3.099-1.132
		c-2.696,1.922-5.08,5.447-3.875,9.998c-1.393,0.783-2.716,1.631-4.067,2.453c1.334,1.369,1.077,3.002,1.549,5.659
		c0.104,0.582,0.627,0.947,0.774,1.509c0.312,1.177-0.17,2.44,0.194,3.583c-1.458,0.279-3.174,0.307-4.843,0.378
		c-0.74,2.371-0.808,5.939-1.161,8.112c-3.784,1.168-8.82,2.088-13.173,2.074c-1.012-1.556-0.251-4.243-3.487-4.716
		c0.043-0.271,0.578-0.065,0.581-0.377c-0.911-0.621-1.363-1.69-2.132-2.451c-3.146-0.048-5.293-0.079-6.199-2.453
		c-0.22-0.577-0.029-1.453-0.193-2.264c-0.219-1.088-1.098-1.899-1.162-2.454c-0.143-1.223,0.956-2.328,0.581-3.584
		c-1.856,0.271-3.361,2.457-5.23,1.511c-1.384,0.979-1.732,2.965-4.068,3.017c-0.177,1.148-0.741,1.921-1.162,2.83
		c-1.392,0.548-3.657,1.198-5.036,0.19c-0.777,0.047-0.856,1.13-1.937,1.131c-1.311,0.001-1.085-1.201-2.326-2.074
		c-1.157-0.815-4.104-0.673-5.229-1.134c-1.088-0.445-1.704-1.817-2.519-1.886c-2.663,0.739-4.764,2.027-6.005,4.149
		c-1.604-0.26-2.956-0.767-4.455-1.13c-0.435-0.96-1.147-1.65-1.163-3.02c-2.334-0.114-2.922-1.932-4.068-3.207
		c-1.692,0.822-2.455-0.501-3.68-1.133c-3.855,1.668-7.889,0.015-11.235-1.318c0.002-3.838-1.576-6.137-3.875-7.736
		c0.148-1.338-0.241-2.154-0.194-3.395c-3.357-0.566-5.866-1.959-6.586-5.094c-1.304-0.074-1.28,1.145-2.325,1.321
		c-1.857-0.694-2.822,0.649-4.067,1.132c-2.101-0.911-3.378-2.623-5.231-3.773c-1.534,0.644-1.862,2.462-4.068,2.451
		c0.063-14.445-0.89-29.569-0.195-44.143c0.662-13.853-1.019-28.259-0.387-42.256c0.811-17.971-0.865-35.891,0-54.331
		c19.639-1.345,35.697-2.013,55.595-3.206c0.386,0.441,0.445,1.201,0.388,2.074c2.003-0.188,4.645,0.249,5.036-1.51
		c1.626,0.364,2.586,1.57,3.875,2.453c1.043,0.715,2.467,2.073,3.68,2.452c0.747,0.232,1.712-0.066,2.518,0.189
		c3.043,0.961,4.756,4.975,8.523,4.904c1.308-0.864,1.196-3.111,2.518-3.961c2.645,0.002,2.205,3.009,5.424,2.452
		c0.189,0.697,0.696,1.083,0.583,2.075c-1.96,1.236,1.949,2.458,3.099,3.396c1.202,0.98,3.835,2.766,5.229,2.83
		c1.195,0.054,2.865-1.052,4.456-1.698c1.519-0.617,3.289-0.762,4.649-1.321c1.114-0.457,1.688-1.699,2.712-2.263
		c0.989-0.549,2.757-0.952,4.067-1.51c3.203-1.363,5.536-2.323,8.521,0.378c0.34-0.857,2.206-0.838,2.518-0.189
		c0.946-1.48,2.86-0.544,4.263-0.943c1.295-0.37,2.589-2.228,3.874-3.395c2.831-2.573,4.753-4.076,7.554-6.604
		c1.231-1.109,2.205-2.777,3.487-3.585c1.853-1.166,3.899-1.299,5.618-2.263c1.576-0.882,2.992-1.774,4.649-3.018
		C168.972,17.875,175.881,13.724,183.66,10.422z"/>
</g>
<g>
	<path fill="#FFFFFF" stroke="#650D0D" stroke-width="3" stroke-miterlimit="10" d="M183.66,10.516
		c1.067,0.827,0.688,2.294,0.774,3.394c1.735,22.173,2.515,47.903,3.874,70.741c-1.513,0.792-3.794,0.833-5.037,1.888
		c0.278,2.56,1.329,4.365,2.712,5.848c-1.245,3.5-0.363,6.817,0.194,10.376c-2.701,2.775-3.32,7.58-4.648,11.694
		c0.181,1.706,0.414,3.519,0.194,5.094c-0.098,0.69-0.844,1.637-0.97,2.452c-0.062,0.409,0.294,1.059,0.194,1.32
		c-0.263,0.688-1.223,0.987-1.55,1.698c-0.478,1.035-0.021,2.734-0.388,3.961c-0.408,1.37-1.425,1.881-1.937,3.019
		c-0.113,1.056,1.345,1.131,1.354,2.264c0.006,0.66-0.976,1.189-1.162,1.886c-0.472,1.774,0.097,4.103-1.355,4.718
		c-2.707-0.842-4.222,1.468-6.005,2.64c-0.834,5.099-5.033,6.919-7.555,10.376c-3.448-0.891-4.187,3.327-7.167,2.641
		c-1.412-0.325-1.424-2.932-2.712-3.019c-0.382-0.026-3.53,2.32-3.874,3.019c-0.543,1.099-0.013,2.589-0.388,3.772
		c-1.498,0.24-3.109,0.367-4.842,0.377c-0.166,2.292-1.744,3.207-2.906,4.529c1.477,2.759,0.622,5.163-1.744,6.412
		c1.787,1.714,2.082,5.587,1.938,7.924c-1.575,0.608-1.935-1.31-3.294-1.509c-0.056,2.794-2.469,5.849-5.035,3.394
		c0.131-1.192,0.984-1.681,1.355-2.641c-0.216-1.171-1.185-1.611-1.55-2.64c-1.77,0.599-1.904-0.711-3.099-1.132
		c-2.696,1.922-5.08,5.446-3.875,9.997c-1.393,0.783-2.716,1.632-4.067,2.453c1.334,1.368,1.077,3.002,1.549,5.659
		c0.104,0.583,0.627,0.947,0.774,1.51c0.312,1.177-0.17,2.439,0.194,3.584c-1.458,0.279-3.174,0.307-4.843,0.378
		c-0.74,2.37-0.808,5.938-1.161,8.112c-3.784,1.168-8.82,2.087-13.173,2.074c-1.012-1.556-0.251-4.243-3.487-4.717
		c0.043-0.271,0.578-0.064,0.581-0.376c-0.911-0.621-1.363-1.691-2.132-2.452c-3.146-0.048-5.293-0.078-6.199-2.453
		c-0.22-0.576-0.029-1.452-0.193-2.264c-0.219-1.087-1.098-1.898-1.162-2.453c-0.143-1.224,0.956-2.329,0.581-3.584
		c-1.856,0.271-3.361,2.457-5.23,1.51c-1.384,0.978-1.732,2.966-4.068,3.018c-0.177,1.148-0.741,1.919-1.162,2.83
		c-1.392,0.547-3.657,1.198-5.036,0.189c-0.777,0.048-0.856,1.131-1.937,1.131c-1.311,0.001-1.085-1.201-2.326-2.076
		c-1.157-0.813-4.104-0.671-5.229-1.131c-1.088-0.445-1.704-1.817-2.519-1.887c-2.663,0.739-4.764,2.026-6.005,4.149
		c-1.604-0.26-2.956-0.768-4.455-1.132c-0.435-0.958-1.147-1.647-1.163-3.018c-2.334-0.114-2.922-1.932-4.068-3.208
		c-1.692,0.822-2.455-0.499-3.68-1.131c-3.855,1.667-7.889,0.015-11.235-1.32c0.002-3.838-1.576-6.137-3.875-7.734
		c0.148-1.339-0.241-2.155-0.194-3.396c-3.357-0.567-5.866-1.958-6.586-5.093c-1.304-0.074-1.28,1.144-2.325,1.32
		c-1.857-0.692-2.822,0.65-4.067,1.133c-2.101-0.91-3.378-2.621-5.231-3.773c-1.534,0.645-1.862,2.462-4.068,2.452
		c0.063-14.445-0.89-29.57-0.195-44.142c0.662-13.854-1.019-28.261-0.387-42.257c0.811-17.971-0.865-35.89,0-54.33
		c19.639-1.345,35.697-2.012,55.595-3.206c0.386,0.441,0.445,1.2,0.388,2.075c2.003-0.187,4.645,0.249,5.036-1.509
		c1.626,0.363,2.586,1.569,3.875,2.452c1.043,0.715,2.467,2.073,3.68,2.453c0.747,0.232,1.712-0.068,2.518,0.188
		c3.043,0.961,4.756,4.976,8.523,4.905c1.308-0.864,1.196-3.11,2.518-3.961c2.645,0.001,2.205,3.009,5.424,2.453
		c0.189,0.696,0.696,1.082,0.583,2.075c-1.96,1.235,1.949,2.458,3.099,3.395c1.202,0.981,3.835,2.766,5.229,2.831
		c1.195,0.055,2.865-1.052,4.456-1.698c1.519-0.618,3.289-0.763,4.649-1.321c1.114-0.457,1.688-1.697,2.712-2.264
		c0.989-0.548,2.757-0.951,4.067-1.509c3.203-1.363,5.536-2.322,8.521,0.377c0.34-0.857,2.206-0.838,2.518-0.189
		c0.946-1.48,2.86-0.543,4.263-0.942c1.295-0.37,2.589-2.228,3.874-3.396c2.831-2.573,4.753-4.075,7.554-6.604
		c1.231-1.111,2.205-2.777,3.487-3.583c1.853-1.167,3.899-1.301,5.618-2.264c1.576-0.882,2.992-1.772,4.649-3.018
		C168.972,17.968,175.881,13.818,183.66,10.516z"/>
</g>
<g>
	<path fill="#650D0D" d="M46.486,45.915c0,0-2.23,51.603-2.723,62.944c-0.416,9.567-4.172,17.083-15.563,15.086
		c-2.528-0.443-8.219-3.405-6.927-9.512c3.658,3.386,9.499,3.689,9.781-3.202c0.283-6.891,2.77-63.149,2.77-63.149l-1.062,0.186
		c-9.371,1.646-15.897,6.176-13.495,20.426c0.7,4.159,5.237,2.617,3.915,1.032c2.553-1.145,4.08,2.436,2.964,5.137
		c-1.173,2.841-5.636,3.64-9.482,1.688c-3.867-1.964-5.587-6.227-6.071-8.979c-2.064-11.757,4.138-25.32,26.111-28.28
		c14.046-1.892,24.618,1.333,32.669,5.066c7.793,3.614,13.104,7.055,17.831,3.878c1.959-1.317,0.572-3.346-1.101-2.643
		c0.089-2.597,5.325-3.803,6.166-0.44c0.806,3.226-1.776,5.989-4.403,7.178c-3.205,1.45-7.177,1.336-12.242-0.221
		C67.856,49.725,61.843,45.625,46.486,45.915z"/>
</g>
<g>
	<path fill="#650D0D" d="M70.307,74.349c-3.012,0.53-4.578,5.66-4.675,7.825l-0.921,26.032l-11.118,1.952l1.975-54.473l11.156-3.551
		l-0.752,20.191c2.592-4.276,5.882-5.49,8.275-5.911c4.941-0.867,9.019,1.043,10.104,7.22c1.098,6.255-0.967,16.25-0.208,20.572
		c0.34,1.931,1.342,3.108,3.659,2.701c3.396-0.598,4.299-3.62,5.293-7.933l3.242-0.57c-2.1,13.423-7.76,16.087-11.853,16.807
		c-6.718,1.18-9.872-2.723-10.644-7.125c-0.921-5.25,0.884-15.358,0.017-20.3C73.408,75.237,72.239,74.01,70.307,74.349z"/>
	<path fill="#650D0D" d="M110.446,93.965c6.099-1.071,9.209-5.12,12.297-10.198l2.626-0.461
		c-3.155,7.877-8.456,16.209-18.726,18.013c-7.259,1.275-12.67-1.437-14.202-10.162c-1.56-8.879,0.191-28.37,16.021-31.149
		c6.871-1.208,9.116,2.06,9.795,5.921c1.56,8.88-5.727,17.244-14.898,19.411c0.113,1.095,0.226,2.19,0.388,3.117
		C104.67,93.706,106.74,94.616,110.446,93.965z M109.798,63.991c-3.938,0.692-6.271,9.618-6.472,17.534
		c5.878-1.431,10.084-8.299,8.958-14.708C111.945,64.888,111.265,63.734,109.798,63.991z"/>
	<path fill="#650D0D" d="M135.242,43.444l-0.482,12.661l4.634-0.813l-0.075,3.198l-4.634,0.812l-0.873,24.034
		c-0.057,1.045,0.002,1.831,0.124,2.525c0.381,2.162,1.506,2.682,3.669,2.302c3.011-0.53,5.275-3.951,5.756-8.015l3.242-0.57
		c-2.189,13.359-9.536,16.4-13.706,17.132c-4.632,0.813-8.75-1.33-9.888-7.815c-0.26-1.468-0.325-3.208-0.265-5.127l0.82-22.512
		l-2.547,0.448l0.074-3.197l2.549-0.447l0.445-11.063L135.242,43.444z"/>
	<path fill="#650D0D" d="M176.069,48.851l-0.948,27.229c-0.056,1.045,0.002,1.831,0.125,2.525c0.379,2.163,1.505,2.681,3.668,2.301
		c0.694-0.124,1.145-0.281,1.645-0.607c-1.136,5.772-2.184,8.423-6.352,9.156c-4.17,0.731-7.426-1.482-8.828-5.853
		c-1.694,3.958-4.763,8.238-10.244,9.2c-5.251,0.923-10.839-1.439-12.453-10.627c-1.831-10.425,1.662-28.15,15.099-30.51
		c4.401-0.773,6.553,0.6,6.946,2.838l0.094,0.542l0.131-4.241L176.069,48.851z M153.918,79.086c1.045,5.946,3.528,5.589,4.919,5.345
		c2.24-0.393,5.076-3.279,5.216-7.92l0.643-18.102c-0.163-0.926-1.211-2.812-3.683-2.377
		C154.449,57.184,152.643,71.83,153.918,79.086z"/>
</g>
<g>
	<path fill="#650D0D" d="M96.567,113.885c0,0-1.711,41.475-1.711,44.455c0,4.031,4.503,1.917,4.503,1.917s-0.941,4.185-3.875,5.474
		c-4.58,2.012-10.389-2.039-10.389-10.257c0-5.879,1.744-41.278,1.744-41.278l-0.814,0.143
		c-7.184,1.262-19.847,10.308-19.076,21.876c0.471,7.063,5.698,13.357,12.003,9.97c0.77-0.414,0.62-1.047-0.437-1.692
		c1.644-1.468,3.137,0.003,3.229,0.803c0.101,0.873-0.354,2.309-1.232,3.015c-2.265,1.81-5.109,2.571-8.637,1.217
		c-7.571-2.91-9.074-9.35-9.04-14.787c0.07-11.229,9.48-24.071,26.222-27.012c8.202-1.441,10.982-0.322,17.626-1.489
		c3.119-0.548,5.912-1.738,7.611-2.803c0.901,5.92-1.537,9.144-6.959,10.095C104.013,114.116,100.37,114.056,96.567,113.885z"/>
</g>
<g>
	<path fill="#650D0D" d="M131.385,111.429l-0.83,23.811c-0.049,0.912,0.003,1.601,0.109,2.208c0.333,1.891,1.388,2.75,3.277,2.418
		c2.634-0.464,3.936-3.754,4.355-7.309l2.835-0.498c-1.916,11.683-7.731,14.235-11.379,14.875c-3.78,0.663-6.59-1.069-7.706-5.05
		c-1.55,3.474-4.178,7.138-8.971,7.979c-4.591,0.807-9.479-1.259-10.889-9.295c-1.601-9.113,1.453-24.616,13.202-26.678
		c3.85-0.676,5.731,0.524,6.074,2.481l0.085,0.472l0.113-3.708L131.385,111.429z M112.015,137.871
		c0.914,5.199,3.086,4.887,4.302,4.673c1.958-0.345,4.438-2.866,4.561-6.926l0.562-15.83c-0.142-0.81-1.058-2.46-3.219-2.079
		C112.48,118.717,110.901,131.524,112.015,137.871z"/>
	<path fill="#650D0D" d="M148.804,108.371l-0.829,23.811c-0.04,0.563-0.001,1.184,0.093,1.724c0.272,1.552,0.994,2.888,2.548,2.615
		c2.634-0.462,3.938-3.338,4.358-6.891l0.785-22.481l9.723-1.708l-0.83,23.812c-0.049,0.912,0.003,1.6,0.109,2.207
		c0.332,1.89,1.317,2.345,3.207,2.012c1.283-0.225,1.585-0.485,2.157-0.796c0.516,4.921-2.628,7.631-6.274,8.271
		c-3.713,0.652-6.571-1.352-7.743-5.253c-2.405,6.129-6.099,7.683-8.934,8.182c-4.052,0.712-7.651-1.162-8.648-6.834
		c-0.226-1.284-0.284-2.805-0.231-4.484l0.785-22.48L148.804,108.371z"/>
</g>
<g>
	<g>
		<path fill="#650D0D" d="M25.153,135.001l-0.109,1.848l-3.53,0.549l-0.548,9.391l-3.481,0.54l0.978-16.688
			c-1.85,0.361-2.967,1.624-2.367,5.491c0.19,1.231,0.535,1.379,0.592,1.591c-1.667,0.26-2.68-0.203-2.949-1.943
			c-0.499-3.215,1.298-6.638,7.269-7.563c0.966-0.15,2.535-0.097,4.057-0.332c0.749-0.116,1.488-0.306,2.131-0.628
			c-0.181,1.068-0.025,2.553-1.847,3.257c-1.112,0.173-2.306,0.134-3.457,0.065l-0.269,4.968L25.153,135.001z"/>
		<path fill="#650D0D" d="M36.183,132.053l-0.466,8.488c-0.023,0.325-0.01,0.57,0.023,0.789c0.104,0.676,0.475,0.991,1.151,0.884
			c0.944-0.145,1.432-1.31,1.606-2.575l1.016-0.157c-0.767,4.153-2.86,5.024-4.166,5.225c-1.354,0.211-2.345-0.428-2.713-1.856
			c-0.578,1.229-1.541,2.518-3.258,2.782c-1.644,0.256-3.372-0.517-3.818-3.393c-0.505-3.264,0.695-8.772,4.902-9.423
			c1.377-0.214,2.04,0.228,2.148,0.928l0.026,0.169l0.068-1.322L36.183,132.053z M29.084,141.347c0.288,1.862,1.066,1.766,1.5,1.699
			c0.702-0.109,1.604-0.992,1.677-2.439l0.313-5.642c-0.045-0.291-0.36-0.886-1.134-0.766
			C29.387,134.518,28.731,139.074,29.084,141.347z"/>
		<path fill="#650D0D" d="M42.71,126.088l-0.756,13.485c-0.024,0.326-0.01,0.572,0.023,0.789c0.105,0.677,0.454,0.846,1.129,0.74
			c0.944-0.146,1.671-1.199,1.847-2.465l1.015-0.158c-0.767,4.156-3.079,5.059-4.384,5.261c-1.451,0.225-2.722-0.471-3.036-2.5
			c-0.071-0.46-0.081-1.004-0.051-1.604l0.709-12.511L42.71,126.088z"/>
		<path fill="#650D0D" d="M48.355,138.532c-0.012,0.249-0.023,0.498,0.012,0.717c0.086,0.555,0.392,0.928,1.141,0.812
			c0.434-0.065,0.617-0.169,0.75-0.264c0.145,1.733-0.96,2.747-2.265,2.95c-1.451,0.226-2.726-0.494-3.044-2.548
			c-0.071-0.46-0.081-1.004-0.05-1.603l0.709-12.512l3.502-1.038L48.355,138.532z"/>
		<path fill="#650D0D" d="M25.022,149.641l-0.319,5.769l0.195-0.03c2.006-0.311,3.065-2.901,2.78-4.738
			c-0.209-1.354-1.167-2.418-3.052-2.126c-3.917,0.606-6.186,3.211-5.615,6.886c0.19,1.232,0.535,1.378,0.592,1.592
			c-1.669,0.258-2.68-0.205-2.951-1.944c-0.499-3.216,3.475-6.975,7.511-7.601c3.819-0.592,5.78,1.034,6.087,3.017
			c0.229,1.476-0.456,3.289-1.97,4.539c1.337,0.164,1.866,1.022,2.042,2.159c0.307,1.98-0.472,4.776-0.237,6.301
			c0.113,0.724,0.577,1.319,1.19,1.447c-0.97,0.447-1.749,0.691-2.331,0.783c-1.57,0.243-2.012-0.529-2.136-1.328
			c-0.248-1.596,0.581-4.719,0.296-6.556c-0.15-0.967-0.618-1.589-1.706-1.42c-0.216,0.034-0.476,0.124-0.783,0.221l-0.521,9.414
			l-3.479,0.538l0.904-15.884L25.022,149.641z"/>
		<path fill="#650D0D" d="M42.094,150.854l-0.465,8.49c-0.024,0.325-0.01,0.57,0.023,0.788c0.104,0.677,0.451,0.846,1.129,0.741
			c0.943-0.147,1.454-1.168,1.628-2.432l1.016-0.157c-0.767,4.153-2.86,5.023-4.165,5.225c-1.378,0.214-2.372-0.448-2.749-1.926
			c-0.902,2.171-2.207,2.694-3.222,2.852c-1.45,0.226-2.722-0.469-3.036-2.499c-0.071-0.46-0.081-1.003-0.05-1.602l0.441-8.015
			l3.48-0.538l-0.466,8.488c-0.011,0.248,0,0.471,0.032,0.688c0.087,0.557,0.348,0.961,0.879,0.877
			c0.943-0.146,1.429-1.161,1.604-2.427l0.44-8.015L42.094,150.854z"/>
		<path fill="#650D0D" d="M54.659,156.854c-1.032,1.646-2.219,2.77-3.23,3.595c-0.851,1.221-2.338,1.848-3.569,2.039
			c-2.466,0.383-3.781-1.072-4.01-2.547c-0.172-1.112,0.329-2.032,0.933-2.447c0.983-2.604,1.482-5.132,1.864-7.616l3.503-1.038
			c1.26,6.217,1.647,7.122,1.895,8.718c0.054,0.339,0.074,0.631,0.046,0.933c0.593-0.486,1.154-1.02,1.553-1.479L54.659,156.854z
			 M45.754,159.447c-0.242,0.037-0.543,0.009-0.701-0.214c0.177,1.137,0.673,1.629,1.737,1.463c1.064-0.165,2.017-0.881,1.754-2.573
			c-0.194-1.257-0.529-1.974-1.347-5.659c-0.24,1.646-0.692,3.202-1.25,4.873c0.338,0.096,0.625,0.35,0.688,0.76
			C46.723,158.678,46.382,159.35,45.754,159.447z"/>
		<path fill="#650D0D" d="M58.836,150.413c-0.798,0.124-1.318,1.071-1.514,2.215l-0.467,8.315l-3.481,0.539l0.957-16.981
			l3.502-1.038l-0.364,6.271c0.863-1.297,1.874-1.651,2.622-1.769c1.547-0.239,2.808,0.381,3.107,2.315
			c0.303,1.959-0.403,5.064-0.193,6.417c0.093,0.604,0.399,0.979,1.124,0.865c0.411-0.063,0.645-0.148,0.775-0.269
			c0.052,1.774-0.992,2.704-2.273,2.903c-1.861,0.288-2.65-0.977-2.865-2.354c-0.255-1.643,0.373-4.785,0.132-6.332
			C59.773,150.713,59.416,150.323,58.836,150.413z"/>
	</g>
</g>
<g>
	<g>
		<path fill="#650D0D" d="M78.964,186.394c1.692-0.263,2.011-0.931,2.981-2.17c0.083,0.384,0.137,0.721,0.188,1.061
			c0.367,2.369,0.08,3.701-2.314,4.071c-2.635,0.41-3.665-0.322-6.131,0.06c-0.556,0.087-1.347,0.729-1.804,0.973
			c-0.089-0.259-0.13-0.524-0.171-0.789c-0.821-5.295,6.765-8.896,5.769-15.326c-0.185-1.184-1.082-1.862-1.783-1.754
			c-1.619,0.251-1.842,1.053-1.654,2.263c0.087,0.554,0.466,1.411,1.174,1.5c-0.542,0.654-1.13,1.018-1.71,1.105
			c-0.991,0.154-1.86-0.503-2.077-1.904c-0.255-1.644,0.778-3.761,4.429-4.327c3.312-0.513,4.833,0.836,5.196,3.181
			c0.835,5.391-5.397,8.782-6.897,12.356l0.121-0.019C75.706,186.454,77.151,186.674,78.964,186.394z"/>
		<path fill="#650D0D" d="M96.173,174.442c0.746,4.81-0.864,12.463-5.819,13.229c-4.159,0.646-5.368-1.567-5.991-5.582
			c-1.022-6.598,1.332-12.483,6.529-13.289C93.913,168.332,95.544,170.381,96.173,174.442z M88.166,182.194
			c0.277,1.789,0.832,3.608,1.992,3.429c2.756-0.427,3.478-6.628,2.608-12.236c-0.307-1.98-0.713-3.479-1.85-3.301
			c-1.449,0.224-3.434,4.194-3.001,9.696C87.969,180.443,88.027,181.3,88.166,182.194z"/>
		<path fill="#650D0D" d="M102.383,185.585l-3.481,0.539l0.852-15.579l-2.295,0.357l0.117-1.157c1.33-0.206,3.193-0.643,5.848-2.838
			L102.383,185.585z"/>
		<path fill="#650D0D" d="M105.825,178.243c0.457-2.793,2.52-7.05,1.974-10.579c-0.075-0.484-0.198-0.959-0.394-1.424
			c1.402-0.216,2.803,0.357,3.039,1.88c0.477,3.07-1.506,5.458-2.382,7.945l3.771-0.585l0.53-9.514l3.502-1.039l-0.574,10.018
			l1.546-0.239l-0.205,1.863l-1.451,0.225l-0.371,6.864l-3.48,0.54l0.396-6.868L105.825,178.243z"/>
	</g>
</g>
<polygon fill="#650D0D" points="120.091,104.16 147.909,98.374 176.544,94.399 148.186,100.181 "/>
<polygon fill="#650D0D" points="105.275,157.646 128.346,152.769 152.124,149.545 128.601,154.415 "/>
<polygon fill="#650D0D" points="31.027,170.554 54.099,165.674 77.876,162.453 54.354,167.322 "/>
<polygon fill="#650D0D" points="12.407,122.619 40.437,116.792 69.29,112.784 40.716,118.611 "/>
<polygon fill="#650D0D" points="54.338,172.763 56.922,176.904 61.801,177.124 58.659,180.861 59.958,185.568 55.432,183.736 
	51.359,186.425 51.702,181.556 47.885,178.512 52.622,177.334 "/>
<polygon fill="#650D0D" points="163.703,26.32 167.297,32.078 174.078,32.384 169.712,37.581 171.517,44.126 165.226,41.578 
	159.56,45.319 160.038,38.547 154.73,34.313 161.319,32.676 "/>
</svg>
