<?xml version="1.0" encoding="utf-8"?>
<!-- Generator: Adobe Illustrator 15.1.0, SVG Export Plug-In . SVG Version: 6.00 Build 0)  -->
<!DOCTYPE svg PUBLIC "-//W3C//DTD SVG 1.1//EN" "http://www.w3.org/Graphics/SVG/1.1/DTD/svg11.dtd">
<svg version="1.1" id="Layer_1" xmlns="http://www.w3.org/2000/svg" xmlns:xlink="http://www.w3.org/1999/xlink" x="0px" y="0px"
	 width="272px" height="185.58px" viewBox="0 0 272 185.58" enable-background="new 0 0 272 185.58" xml:space="preserve">
<g>
	<path display="none" fill="#25B6B2" d="M96.314-25.041c10.004-21.465,42.346-55.673,103.307-41.535
		c46.646,10.819,64.218,59.683,63.286,89.464c17.685,7.912,43.277,20.011,43.277,64.684c0,44.674-27.454,64.682-58.167,64.682
		s-209.406,0-238.723,0c-29.316,0-58.633-30.713-58.633-64.217c0-33.504,22.802-71.198,70.732-69.336
		C29.771-16.2,71.651-32.021,96.314-25.041z"/>
	<path fill="#00303E" d="M251.508,67.528c0,0-39.555,57.237-113.079,57.237c-73.525,0-113.079-57.237-113.079-57.237
		s40.021-57.238,113.079-57.238C211.488,10.291,251.508,67.528,251.508,67.528z"/>
	<g>
		<polygon fill="#0F4656" points="52.8,41.187 66.403,67.902 26.36,67.902 		"/>
		<polygon fill="#07303F" points="66.403,67.902 26.36,67.902 45.431,88.233 		"/>
		<polygon fill="#0B7688" points="71.694,95.224 66.403,67.902 45.431,88.233 		"/>
		<polygon fill="#07303F" points="71.694,106.751 71.694,95.224 45.431,88.233 		"/>
		<polygon fill="#07303F" points="99.279,75.385 66.403,67.902 71.694,95.224 		"/>
		<polygon fill="#0B7688" points="110.994,95.224 99.279,75.385 71.694,95.224 		"/>
		<polygon fill="#07303F" points="91.344,110.906 71.694,95.224 110.994,95.224 		"/>
		<polygon fill="#04383D" points="98.146,118.088 91.344,110.906 71.694,95.224 71.694,106.751 		"/>
		<polygon fill="#07303F" points="114.772,114.307 98.146,118.088 91.344,110.906 		"/>
		<polygon fill="#04383D" points="110.994,95.224 114.772,114.307 91.344,110.906 		"/>
		<polygon fill="#07303F" points="114.772,114.307 133.1,123.944 98.146,118.088 		"/>
		<polygon fill="#075466" points="129.888,67.902 99.279,75.385 110.994,95.224 		"/>
		<polygon fill="#07303F" points="141.791,94.09 129.888,67.902 110.994,95.224 		"/>
		<polygon fill="#075466" points="110.994,95.224 141.791,94.09 114.772,114.307 		"/>
		<polygon fill="#04383D" points="162.007,110.906 141.791,94.09 114.772,114.307 		"/>
		<polygon fill="#0B7688" points="133.1,123.944 162.007,110.906 114.772,114.307 		"/>
		<polygon fill="#075466" points="66.403,67.902 94.367,48.367 99.279,75.385 		"/>
		<polygon fill="#04383D" points="52.8,41.187 94.367,48.367 66.403,67.902 		"/>
		<polygon fill="#0F4656" points="75.473,26.64 94.367,48.367 52.8,41.187 		"/>
		<polygon fill="#0B7688" points="103.058,21.538 94.367,48.367 75.473,26.64 		"/>
		<polygon fill="#075466" points="94.367,18.515 103.058,21.538 75.473,26.64 		"/>
		<polygon fill="#04383D" points="124.975,26.64 94.367,48.367 103.058,21.538 		"/>
		<polygon fill="#075466" points="138.389,18.515 124.975,26.64 103.058,21.538 		"/>
		<polygon fill="#0F4656" points="94.367,18.515 126.392,10.933 103.058,21.538 		"/>
		<polygon fill="#04383D" points="138.389,18.515 103.058,21.538 126.392,10.933 		"/>
		<polygon fill="#07303F" points="178.682,118.088 162.007,110.906 133.1,123.944 		"/>
		<polygon fill="#04383D" points="205.465,106.751 162.007,110.906 178.444,118.088 		"/>
		<polygon fill="#04383D" points="138.389,18.515 171.265,28.717 146.326,46.478 		"/>
		<polygon fill="#0B7688" points="124.975,26.64 146.326,46.478 138.389,18.515 		"/>
		<polygon fill="#075466" points="94.367,48.367 146.326,46.478 124.975,26.64 		"/>
		<polygon fill="#0B7688" points="129.888,67.902 94.367,48.367 99.279,75.385 		"/>
		<polygon fill="#04383D" points="146.326,46.478 129.888,67.902 94.367,48.367 		"/>
		<polygon fill="#075466" points="178.444,68.773 129.888,67.902 141.791,94.09 		"/>
		<polygon fill="#0B7688" points="162.007,110.906 178.444,68.773 141.791,94.09 		"/>
		<polygon fill="#07303F" points="146.326,46.478 178.444,68.773 129.888,67.902 		"/>
		<polygon fill="#075466" points="171.265,28.717 178.444,68.773 146.326,46.478 		"/>
		<polygon fill="#0B7688" points="138.389,18.515 164.842,13.225 171.265,28.717 		"/>
		<polygon fill="#0F4656" points="126.392,10.933 164.842,13.225 138.389,18.515 		"/>
		<polygon fill="#075466" points="178.444,68.773 205.465,106.751 162.007,110.906 		"/>
		<polygon fill="#07303F" points="219.634,68.773 205.465,106.751 178.444,68.773 		"/>
		<polygon fill="#0B7688" points="203.009,38.353 178.444,68.773 219.634,68.773 		"/>
		<polygon fill="#04383D" points="171.265,28.717 203.009,38.353 178.444,68.773 		"/>
		<polygon fill="#0F4656" points="164.842,13.225 191.292,20.971 171.265,28.717 		"/>
		<polygon fill="#0B7688" points="203.009,38.353 191.292,20.971 171.265,28.717 		"/>
		<polygon fill="#075466" points="235.315,49.878 219.634,68.773 203.009,38.353 		"/>
		<polygon fill="#0F4656" points="191.292,20.971 235.315,49.878 203.009,38.353 		"/>
		<polygon fill="#0F4656" points="251.483,67.902 235.315,49.878 219.634,68.773 		"/>
		<polygon fill="#04383D" points="205.465,106.751 251.483,67.902 219.634,68.773 		"/>
	</g>
	<path display="none" fill="#014656" d="M251.508,67.528H25.35c0,0,40.021-57.238,113.079-57.238
		C211.488,10.291,251.508,67.528,251.508,67.528z"/>
	<circle fill="#58BBEA" cx="138.429" cy="67.004" r="53.282"/>
	<path fill="#76D0ED" d="M167.863,67.002c0,16.258-13.179,29.436-29.436,29.436c-16.253,0-29.431-13.178-29.431-29.436
		c0-16.256,13.178-29.432,29.431-29.432C154.684,37.57,167.863,50.747,167.863,67.002z"/>
	<path fill="#1C8BAD" d="M167.863,67.002c-11.519,0-47.35,0-58.867,0c0-16.256,13.178-29.432,29.431-29.432
		C154.684,37.57,167.863,50.747,167.863,67.002z"/>
	<path fill="#00303E" d="M161.93,67.003c0,12.98-10.522,23.502-23.502,23.502c-12.976,0-23.498-10.522-23.498-23.502
		c0-12.979,10.522-23.5,23.498-23.5C151.407,43.503,161.93,54.024,161.93,67.003z"/>
	<circle fill="#FFFFFF" cx="119.117" cy="45.365" r="13.495"/>
	<circle fill="#FFFFFF" cx="100.271" cy="67.005" r="5.352"/>
</g>
<image display="none" overflow="visible" width="499" height="395" xlink:href="7AB60D41.jpg"  transform="matrix(0.6597 0 0 0.6597 4.9082 41.8657)">
</image>
<image display="none" overflow="visible" width="3200" height="1165" xlink:href="7AB60D40.jpg"  transform="matrix(1 0 0 1 -2177.5 -432.8462)">
</image>
<text transform="matrix(1 0 0 1 7.9976 136.9414)" display="none"><tspan x="0" y="0" display="inline" fill="#1C8BAD" font-family="'BlockHead'" font-size="45.7144">VR</tspan><tspan x="38.034" y="0" display="inline" fill="#0B7688" font-family="'BlockHead'" font-size="45.7144"> </tspan><tspan x="43.885" y="0" display="inline" fill="#58BBEA" font-family="'BlockHead'" font-size="45.7144">MEDIA</tspan><tspan x="143.312" y="0" display="inline" fill="#0B7688" font-family="'BlockHead'" font-size="45.7144"> </tspan><tspan x="149.164" y="0" display="inline" fill="#76D0ED" font-family="'BlockHead'" font-size="45.7144">HUB</tspan></text>
<text transform="matrix(1 0 0 1 62.1675 224.1538)" display="none"><tspan x="0" y="0" display="inline" fill="#76D0ED" font-family="'BlockHead'" font-size="45.7144">VR</tspan><tspan x="38.034" y="0" display="inline" fill="#0B7688" font-family="'BlockHead'" font-size="45.7144"> </tspan><tspan x="43.885" y="0" display="inline" fill="#58BBEA" font-family="'BlockHead'" font-size="45.7144">MEDIA</tspan><tspan x="143.312" y="0" display="inline" fill="#0B7688" font-family="'BlockHead'" font-size="45.7144"> </tspan><tspan x="149.164" y="0" display="inline" fill="#1C8BAD" font-family="'BlockHead'" font-size="45.7144">HUB</tspan></text>
<text transform="matrix(1 0 0 1 24.999 122.7271)" display="none"><tspan x="0" y="0" display="inline" fill="#1C8BAD" font-family="'SquareBlock'" font-size="30.7853">VR</tspan><tspan x="33.863" y="0" display="inline" fill="#1C8BAD" font-family="'SquareBlock'" font-size="8"> </tspan><tspan x="38.263" y="0" display="inline" fill="#58BBEA" font-family="'SquareBlock'" font-size="30.7853">Media</tspan><tspan x="122.675" y="0" display="inline" fill="#58BBEA" font-family="'SquareBlock'" font-size="8"> </tspan><tspan x="127.075" y="0" display="inline" fill="#76D0ED" font-family="'SquareBlock'" font-size="30.7853">Hub</tspan></text>
<text transform="matrix(1 0 0 1 25.8877 130.3936)" display="none"><tspan x="0" y="0" display="inline" fill="#1C8BAD" font-family="'Digitaltech'" font-size="30.7853">VR </tspan><tspan x="41.308" y="0" display="inline" fill="#58BBEA" font-family="'Digitaltech'" font-size="30.7853">MediA </tspan><tspan x="121.097" y="0" display="inline" fill="#76D0ED" font-family="'Digitaltech'" font-size="30.7853">Hub</tspan></text>
<g>
	<path fill="#1C8BAD" d="M20.893,160.964l11.338-19.72h5.387L22.97,166.599h-4.19L4.131,141.245h5.388L20.893,160.964z"/>
	<path fill="#1C8BAD" d="M65.507,146.175v6.832c0,1.338-0.481,2.489-1.444,3.451c-0.962,0.963-2.125,1.444-3.486,1.444h-1.373
		l6.303,7.501v1.197h-5.07l-7.325-8.698h-8.205h-0.106v8.698h-4.648V141.28h20.424c1.361,0,2.523,0.482,3.486,1.443
		C65.026,143.687,65.507,144.836,65.507,146.175z M45.048,153.253h15.529c0.164,0,0.247-0.082,0.247-0.247v-6.832
		c0-0.165-0.083-0.247-0.247-0.247H45.048c-0.165,0-0.247,0.083-0.247,0.247v6.832C44.802,153.171,44.883,153.253,45.048,153.253z"
		/>
	<path fill="#58BBEA" d="M88.697,152.231l9.19-10.987h5.106v25.354H98.31v-18.593l-9.613,11.444l-9.648-11.444v18.593H74.4v-25.354
		h5.071L88.697,152.231z"/>
	<path fill="#58BBEA" d="M122.782,146.175c1.338,0,2.483,0.475,3.434,1.426c0.951,0.951,1.426,2.096,1.426,3.435v7.675h-16.127
		v3.029c0,0.165,0.082,0.246,0.247,0.246h15.881v4.614h-15.881c-1.338,0-2.482-0.476-3.434-1.427
		c-0.95-0.951-1.426-2.095-1.426-3.433v-10.704c0-1.338,0.476-2.483,1.426-3.435c0.951-0.951,2.095-1.426,3.434-1.426H122.782z
		 M111.514,154.063h11.515v-3.028c0-0.165-0.083-0.248-0.247-0.248h-11.021c-0.165,0-0.247,0.083-0.247,0.248V154.063z"/>
	<path fill="#58BBEA" d="M147.149,139.484h4.613v27.115h-15.916c-1.338,0-2.482-0.476-3.434-1.427
		c-0.951-0.951-1.426-2.095-1.426-3.433v-10.704c0-1.338,0.475-2.483,1.426-3.435c0.951-0.951,2.095-1.426,3.434-1.426h11.303
		V139.484z M135.846,161.985h11.057c0.164,0,0.246-0.082,0.246-0.246v-10.704c0-0.165-0.083-0.248-0.246-0.248h-11.057
		c-0.142,0-0.211,0.083-0.211,0.248v10.704C135.635,161.904,135.705,161.985,135.846,161.985z"/>
	<path fill="#58BBEA" d="M155.495,139.484h4.614v4.648h-4.614V139.484z M155.495,166.599v-20.424h4.614v20.424H155.495z"/>
	<path fill="#58BBEA" d="M179.58,146.175c1.339,0,2.482,0.475,3.434,1.426s1.426,2.096,1.426,3.435v15.564h-15.88
		c-1.339,0-2.484-0.476-3.435-1.427c-0.95-0.951-1.426-2.095-1.426-3.433v-7.676h16.128v-3.028c0-0.165-0.083-0.248-0.247-0.248
		h-15.881v-4.613H179.58z M179.827,161.985v-3.275h-11.515v3.029c0,0.165,0.082,0.246,0.247,0.246H179.827z"/>
	<path fill="#76D0ED" d="M214.741,141.245h4.648v25.354h-4.648v-10.353h-16.62v10.353h-4.648v-25.354h4.648v10.353h16.62V141.245z"
		/>
	<path fill="#76D0ED" d="M239.426,146.175h4.611v15.564c0,1.338-0.474,2.482-1.426,3.433c-0.95,0.951-2.095,1.427-3.433,1.427
		h-11.021c-1.36,0-2.511-0.476-3.451-1.427c-0.939-0.951-1.408-2.095-1.408-3.433v-15.564h4.612v15.564
		c0,0.165,0.083,0.246,0.247,0.246h11.021c0.164,0,0.247-0.082,0.247-0.246V146.175z"/>
	<path fill="#76D0ED" d="M263.159,146.175c1.338,0,2.483,0.475,3.433,1.426c0.952,0.951,1.427,2.096,1.427,3.435v10.704
		c0,1.338-0.475,2.482-1.427,3.433c-0.949,0.951-2.095,1.427-3.433,1.427h-15.881v-27.115h4.611v6.69H263.159z M263.407,161.739
		v-10.704c0-0.165-0.083-0.248-0.248-0.248h-11.021c-0.164,0-0.248,0.083-0.248,0.248v10.704c0,0.165,0.084,0.246,0.248,0.246
		h11.021C263.324,161.985,263.407,161.904,263.407,161.739z"/>
</g>
</svg>
